<svg xmlns="http://www.w3.org/2000/svg" viewBox="0 0 360 230"><g fill="none" stroke-linecap="round" stroke-linejoin="round"><ellipse cx="180" cy="211" rx="123" ry="8" fill="#efe8ed"/><path d="M75 152l67-54 68 54v48H75z" fill="#dceff7"/><path d="M97 158h35v42H97zm54 0h37v26h-37z" fill="#fff"/><circle cx="257" cy="82" r="22" fill="#f1b68f"/><path d="M237 81c2-23 35-28 44-8-11 1-23-2-31-10" fill="#602849"/><path d="M230 110c17-11 42-10 55 6l-7 54h-54z" fill="#5bb6a8"/><path d="M242 170l-7 35m31-35 8 35" stroke="#392c36" stroke-width="12"/><path d="M231 124l-28 17" stroke="#f1b68f" stroke-width="10"/><rect x="198" y="135" width="34" height="43" rx="4" fill="#e69a5c"/><path d="M207 135v-8c0-8 16-8 16 0v8" stroke="#602849" stroke-width="4"/><path d="M269 48c0-15 12-27 27-27s27 12 27 27c0 23-27 50-27 50s-27-27-27-50z" fill="#bf5294"/><circle cx="296" cy="48" r="9" fill="#fff"/></g></svg>