<svg xmlns="http://www.w3.org/2000/svg" viewBox="0 0 360 230"><g fill="none" stroke-linecap="round" stroke-linejoin="round"><ellipse cx="180" cy="211" rx="124" ry="8" fill="#efe8ed"/><rect x="112" y="148" width="138" height="12" rx="6" fill="#602849"/><path d="M131 160v42m100-42v42" stroke="#392c36" stroke-width="8"/><circle cx="103" cy="91" r="21" fill="#f1b68f"/><path d="M84 90c2-21 32-26 41-8-10 2-21-2-28-8" fill="#602849"/><path d="M80 119c15-10 37-9 50 5l-6 50H74z" fill="#4fa3d1"/><circle cx="262" cy="91" r="21" fill="#f1b68f"/><path d="M244 89c2-21 31-26 40-8-10 2-20-2-28-8" fill="#392c36"/><path d="M239 119c15-10 37-9 50 5l-6 50h-50z" fill="#5bb6a8"/><path d="M128 129l46 17m64-17-44 17" stroke="#f1b68f" stroke-width="10"/><path d="M172 126h27l-3 22h-21z" fill="#fff" stroke="#e69a5c" stroke-width="3"/><path d="M181 126c0-8 8-12 14-7" stroke="#e69a5c" stroke-width="3"/></g></svg>