<svg xmlns="http://www.w3.org/2000/svg" viewBox="0 0 360 230"><g fill="none" stroke-linecap="round" stroke-linejoin="round"><ellipse cx="180" cy="211" rx="120" ry="8" fill="#efe8ed"/><path d="M70 61h95c15 0 27 11 27 25v43c0 14-12 25-27 25h-38l-27 24 5-24H70c-15 0-27-11-27-25V86c0-14 12-25 27-25z" fill="#dceff7"/><path d="M90 88h57m-46 20h36m-45 20h61" stroke="#4fa3d1" stroke-width="6"/><circle cx="252" cy="91" r="22" fill="#f1b68f"/><path d="M233 90c2-23 34-28 43-8-11 2-22-2-30-9" fill="#602849"/><path d="M226 119c17-11 41-10 54 6l-7 50h-53z" fill="#bf5294"/><path d="M238 174l-6 31m30-31 7 31" stroke="#392c36" stroke-width="12"/><path d="M228 131l-34 5" stroke="#f1b68f" stroke-width="10"/><rect x="191" y="123" width="29" height="42" rx="4" fill="#fff" stroke="#e69a5c" stroke-width="3"/></g></svg>