<svg xmlns="http://www.w3.org/2000/svg" viewBox="0 0 360 230"><g fill="none" stroke-linecap="round" stroke-linejoin="round"><ellipse cx="180" cy="211" rx="126" ry="8" fill="#efe8ed"/><circle cx="103" cy="172" r="31" stroke="#392c36" stroke-width="7"/><circle cx="236" cy="172" r="31" stroke="#392c36" stroke-width="7"/><path d="M104 171l39-55 31 55h-70l42-10 39-42 51 53m-91-55h32" stroke="#4fa3d1" stroke-width="8"/><circle cx="177" cy="84" r="22" fill="#f1b68f"/><path d="M157 83c2-22 34-28 43-8-11 2-22-2-30-9" fill="#602849"/><path d="M154 111c15-10 38-9 50 5l-14 32-37-14z" fill="#bf5294"/><path d="M166 136l-22 36m45-31 47 31" stroke="#392c36" stroke-width="11"/><path d="M153 119l-29 13m77-8 30 7" stroke="#f1b68f" stroke-width="9"/></g></svg>